<svg width="21" height="20" viewBox="0 0 21 20" fill="none" xmlns="http://www.w3.org/2000/svg">
<path fill-rule="evenodd" clip-rule="evenodd" d="M8.78628 2.70801H12.2136C13.7451 2.70799 14.9581 2.70798 15.9075 2.83562C16.8845 2.96698 17.6753 3.24374 18.2989 3.86738C18.9226 4.49101 19.1993 5.2818 19.3307 6.25882C19.4583 7.20817 19.4583 8.4212 19.4583 9.95267V10.0467C19.4583 11.5782 19.4583 12.7912 19.3307 13.7405C19.1993 14.7175 18.9226 15.5083 18.2989 16.132C17.6753 16.7556 16.8845 17.0324 15.9075 17.1637C14.9581 17.2914 13.7451 17.2914 12.2136 17.2913H8.78628C7.25482 17.2914 6.04179 17.2914 5.09244 17.1637C4.11542 17.0324 3.32463 16.7556 2.701 16.132C2.07736 15.5083 1.8006 14.7175 1.66924 13.7405C1.5416 12.7912 1.54161 11.5782 1.54163 10.0467V9.95266C1.54161 8.42119 1.5416 7.20817 1.66924 6.25882C1.8006 5.2818 2.07736 4.49101 2.701 3.86738C3.32463 3.24374 4.11542 2.96698 5.09244 2.83562C6.04179 2.70798 7.25481 2.70799 8.78628 2.70801ZM5.259 4.07447C4.42059 4.18719 3.93755 4.39859 3.58488 4.75126C3.2322 5.10394 3.02081 5.58697 2.90809 6.42538C2.79295 7.28177 2.79163 8.41066 2.79163 9.99968C2.79163 11.5887 2.79295 12.7176 2.90809 13.574C3.02081 14.4124 3.2322 14.8954 3.58488 15.2481C3.93755 15.6008 4.42059 15.8122 5.259 15.9249C6.11539 16.04 7.24428 16.0413 8.83329 16.0413H12.1666C13.7556 16.0413 14.8845 16.04 15.7409 15.9249C16.5793 15.8122 17.0624 15.6008 17.415 15.2481C17.7677 14.8954 17.9791 14.4124 18.0918 13.574C18.207 12.7176 18.2083 11.5887 18.2083 9.99968C18.2083 8.41066 18.207 7.28177 18.0918 6.42538C17.9791 5.58697 17.7677 5.10394 17.415 4.75126C17.0624 4.39859 16.5793 4.18719 15.7409 4.07447C14.8845 3.95934 13.7556 3.95801 12.1666 3.95801H8.83329C7.24428 3.95801 6.11539 3.95934 5.259 4.07447ZM5.01982 6.26623C5.2408 6.00105 5.6349 5.96523 5.90007 6.1862L7.69915 7.68544C8.47662 8.33332 9.0164 8.78169 9.47211 9.07478C9.91324 9.3585 10.2124 9.45374 10.5 9.45374C10.7875 9.45374 11.0867 9.3585 11.5278 9.07478C11.9835 8.78169 12.5233 8.33332 13.3008 7.68544L15.0998 6.1862C15.365 5.96523 15.7591 6.00105 15.9801 6.26623C16.2011 6.5314 16.1652 6.9255 15.9001 7.14648L14.0697 8.67182C13.331 9.28737 12.7324 9.78628 12.204 10.1261C11.6536 10.4801 11.1175 10.7037 10.5 10.7037C9.88239 10.7037 9.34635 10.4801 8.79594 10.1261C8.26756 9.78628 7.66889 9.28737 6.93026 8.67183L5.09984 7.14648C4.83467 6.9255 4.79884 6.5314 5.01982 6.26623Z" fill="#121212" fill-opacity="0.6"/>
</svg>
