<svg width="20" height="20" viewBox="0 0 20 20" fill="none" xmlns="http://www.w3.org/2000/svg">
<path fill-rule="evenodd" clip-rule="evenodd" d="M8.28628 2.70801H11.7136C13.2451 2.70799 14.4581 2.70798 15.4075 2.83562C16.3845 2.96698 17.1753 3.24374 17.7989 3.86738C18.4226 4.49101 18.6993 5.2818 18.8307 6.25882C18.9583 7.20817 18.9583 8.4212 18.9583 9.95267V10.0467C18.9583 11.5782 18.9583 12.7912 18.8307 13.7405C18.6993 14.7175 18.4226 15.5083 17.7989 16.132C17.1753 16.7556 16.3845 17.0324 15.4075 17.1637C14.4581 17.2914 13.2451 17.2914 11.7136 17.2913H8.28628C6.75482 17.2914 5.54179 17.2914 4.59244 17.1637C3.61542 17.0324 2.82463 16.7556 2.201 16.132C1.57736 15.5083 1.3006 14.7175 1.16924 13.7405C1.0416 12.7912 1.04161 11.5782 1.04163 10.0467V9.95266C1.04161 8.42119 1.0416 7.20817 1.16924 6.25882C1.3006 5.2818 1.57736 4.49101 2.201 3.86738C2.82463 3.24374 3.61542 2.96698 4.59244 2.83562C5.54179 2.70798 6.75481 2.70799 8.28628 2.70801ZM4.759 4.07447C3.92059 4.18719 3.43755 4.39859 3.08488 4.75126C2.7322 5.10394 2.52081 5.58697 2.40809 6.42538C2.29295 7.28177 2.29163 8.41066 2.29163 9.99968C2.29163 11.5887 2.29295 12.7176 2.40809 13.574C2.52081 14.4124 2.7322 14.8954 3.08488 15.2481C3.43755 15.6008 3.92059 15.8122 4.759 15.9249C5.61539 16.04 6.74428 16.0413 8.33329 16.0413H11.6666C13.2556 16.0413 14.3845 16.04 15.2409 15.9249C16.0793 15.8122 16.5624 15.6008 16.915 15.2481C17.2677 14.8954 17.4791 14.4124 17.5918 13.574C17.707 12.7176 17.7083 11.5887 17.7083 9.99968C17.7083 8.41066 17.707 7.28177 17.5918 6.42538C17.4791 5.58697 17.2677 5.10394 16.915 4.75126C16.5624 4.39859 16.0793 4.18719 15.2409 4.07447C14.3845 3.95934 13.2556 3.95801 11.6666 3.95801H8.33329C6.74428 3.95801 5.61539 3.95934 4.759 4.07447ZM4.51982 6.26623C4.7408 6.00105 5.1349 5.96523 5.40007 6.1862L7.19915 7.68544C7.97662 8.33332 8.5164 8.78169 8.97211 9.07478C9.41324 9.3585 9.7124 9.45374 9.99996 9.45374C10.2875 9.45374 10.5867 9.3585 11.0278 9.07478C11.4835 8.78169 12.0233 8.33332 12.8008 7.68544L14.5998 6.1862C14.865 5.96523 15.2591 6.00105 15.4801 6.26623C15.7011 6.5314 15.6652 6.9255 15.4001 7.14648L13.5697 8.67182C12.831 9.28737 12.2324 9.78628 11.704 10.1261C11.1536 10.4801 10.6175 10.7037 9.99996 10.7037C9.38239 10.7037 8.84635 10.4801 8.29594 10.1261C7.76756 9.78628 7.16889 9.28737 6.43026 8.67183L4.59984 7.14648C4.33467 6.9255 4.29884 6.5314 4.51982 6.26623Z" fill="#121212" fill-opacity="0.6"/>
</svg>
