<svg width="22" height="22" viewBox="0 0 22 22" fill="none" xmlns="http://www.w3.org/2000/svg">
<path d="M7.33337 2.8418V6.4168C7.33337 7.38926 7.71968 8.32189 8.40732 9.00952C9.09495 9.69716 10.0276 10.0835 11 10.0835C11.9725 10.0835 12.9051 9.69716 13.5928 9.00952C14.2804 8.32189 14.6667 7.38926 14.6667 6.4168V2.8418" stroke="black" stroke-width="2" stroke-linecap="round" stroke-linejoin="round"/>
<path d="M8.25004 13.7507L7.33337 12.834" stroke="black" stroke-width="2" stroke-linecap="round" stroke-linejoin="round"/>
<path d="M13.75 13.7507L14.6667 12.834" stroke="black" stroke-width="2" stroke-linecap="round" stroke-linejoin="round"/>
<path d="M8.24996 17.4173C5.68329 17.4173 3.66663 15.4007 3.66663 12.834V9.16732C3.66663 7.2224 4.43924 5.35713 5.81451 3.98187C7.18978 2.6066 9.05504 1.83398 11 1.83398C12.9449 1.83398 14.8101 2.6066 16.1854 3.98187C17.5607 5.35713 18.3333 7.2224 18.3333 9.16732V12.834C18.3333 15.4007 16.3166 17.4173 13.75 17.4173H8.24996Z" stroke="black" stroke-width="2" stroke-linecap="round" stroke-linejoin="round"/>
<path d="M7.33333 17.416L5.5 20.166" stroke="black" stroke-width="2" stroke-linecap="round" stroke-linejoin="round"/>
<path d="M14.6666 17.416L16.5 20.166" stroke="black" stroke-width="2" stroke-linecap="round" stroke-linejoin="round"/>
</svg>
