<svg width="20" height="20" viewBox="0 0 20 20" fill="none" xmlns="http://www.w3.org/2000/svg">
<g clip-path="url(#clip0_5_8819)">
<path d="M10.8333 4.99935C9.91286 4.99935 9.16667 4.25316 9.16667 3.33268C9.16667 2.41221 9.91286 1.66602 10.8333 1.66602C11.7538 1.66602 12.5 2.41221 12.5 3.33268C12.5 4.25316 11.7538 4.99935 10.8333 4.99935Z" stroke="#122B49" stroke-width="2" stroke-linecap="round" stroke-linejoin="round"/>
<path d="M5.00008 8.33333C4.07961 8.33333 3.33341 7.58714 3.33341 6.66667C3.33341 5.74619 4.07961 5 5.00008 5C5.92056 5 6.66675 5.74619 6.66675 6.66667C6.66675 7.58714 5.92056 8.33333 5.00008 8.33333Z" stroke="#122B49" stroke-width="2" stroke-linecap="round" stroke-linejoin="round"/>
<path d="M3.33333 14.9993C2.41286 14.9993 1.66667 14.2532 1.66667 13.3327C1.66667 12.4122 2.41286 11.666 3.33333 11.666C4.25381 11.666 5 12.4122 5 13.3327C5 14.2532 4.25381 14.9993 3.33333 14.9993Z" stroke="#122B49" stroke-width="2" stroke-linecap="round" stroke-linejoin="round"/>
<path d="M12.4999 8.33398C11.9527 8.33398 11.4109 8.44176 10.9054 8.65115C10.3998 8.86055 9.94052 9.16746 9.5536 9.55437C9.16669 9.94128 8.85978 10.4006 8.65038 10.9061C8.44099 11.4117 8.33322 11.9535 8.33322 12.5007V15.4173C8.33344 16.1144 8.5833 16.7883 9.03753 17.317C9.49177 17.8457 10.1203 18.1943 10.8094 18.2996C11.4984 18.4049 12.2024 18.2599 12.7938 17.8909C13.3852 17.5219 13.8249 16.9533 14.0332 16.2882C14.3888 15.1409 15.1388 14.3895 16.2832 14.034C16.9481 13.8257 17.5164 13.3864 17.8854 12.7955C18.2544 12.2045 18.3997 11.501 18.295 10.8122C18.1903 10.1234 17.8424 9.4949 17.3145 9.04033C16.7865 8.58576 16.1132 8.3352 15.4166 8.33398H12.4999Z" stroke="#122B49" stroke-width="2" stroke-linecap="round" stroke-linejoin="round"/>
</g>
<defs>
<clipPath id="clip0_5_8819">
<rect width="20" height="20" fill="white" transform="matrix(-1 0 0 1 20 0)"/>
</clipPath>
</defs>
</svg>
