<svg width="14" height="15" viewBox="0 0 14 15" fill="none" xmlns="http://www.w3.org/2000/svg">
<path d="M12 6.21512C12 10.0723 7 13.9294 7 13.9294C7 13.9294 2 10.0723 2 6.21512C2 4.85115 2.52678 3.54305 3.46447 2.57857C4.40215 1.6141 5.67392 1.07227 7 1.07227C8.32608 1.07227 9.59785 1.6141 10.5355 2.57857C11.4732 3.54305 12 4.85115 12 6.21512Z" fill="#122B49" stroke="#122B49" stroke-width="2" stroke-linecap="round" stroke-linejoin="round"/>
<path d="M6.99994 7.05917C7.68218 7.05917 8.23524 6.4666 8.23524 5.73564C8.23524 5.00467 7.68218 4.41211 6.99994 4.41211C6.31771 4.41211 5.76465 5.00467 5.76465 5.73564C5.76465 6.4666 6.31771 7.05917 6.99994 7.05917Z" fill="white" stroke="white" stroke-width="2" stroke-linecap="round" stroke-linejoin="round"/>
</svg>
