<svg width="22" height="22" viewBox="0 0 22 22" fill="none" xmlns="http://www.w3.org/2000/svg">
<path d="M16.3167 17.6L14.6667 10.0833L17.875 6.875C19.25 5.5 19.7083 3.66667 19.25 2.75C18.3333 2.29167 16.5 2.75 15.125 4.125L11.9167 7.33333L4.4 5.68333C3.94167 5.59167 3.575 5.775 3.39167 6.14167L3.11667 6.6C2.93333 7.05833 3.025 7.51667 3.39167 7.79167L8.25 11L6.41667 13.75H3.66667L2.75 14.6667L5.5 16.5L7.33333 19.25L8.25 18.3333V15.5833L11 13.75L14.2083 18.6083C14.4833 18.975 14.9417 19.0667 15.4 18.8833L15.8583 18.7C16.225 18.425 16.4083 18.0583 16.3167 17.6Z" stroke="black" stroke-width="2" stroke-linecap="round" stroke-linejoin="round"/>
</svg>
