<svg width="20" height="20" viewBox="0 0 20 20" fill="none" xmlns="http://www.w3.org/2000/svg">
<path d="M5.83333 13.5827C7.66667 13.5827 9.16667 12.0577 9.16667 10.2077C9.16667 9.24102 8.69167 8.32435 7.74167 7.54935C6.79167 6.77435 6.075 5.62435 5.83333 4.41602C5.59167 5.62435 4.88333 6.78268 3.925 7.54935C2.96667 8.31602 2.5 9.24935 2.5 10.2077C2.5 12.0577 4 13.5827 5.83333 13.5827Z" stroke="#122B49" stroke-width="2" stroke-linecap="round" stroke-linejoin="round"/>
<path d="M10.4666 5.50091C11.0398 4.58518 11.446 3.57511 11.6666 2.51758C12.0833 4.60091 13.3333 6.60091 15 7.93425C16.6666 9.26758 17.5 10.8509 17.5 12.5176C17.5047 13.6695 17.1673 14.7969 16.5306 15.7568C15.8939 16.7168 14.9865 17.466 13.9234 17.9097C12.8603 18.3533 11.6895 18.4713 10.5593 18.2486C9.42906 18.026 8.3904 17.4729 7.57495 16.6592" stroke="#122B49" stroke-width="2" stroke-linecap="round" stroke-linejoin="round"/>
</svg>
